<svg version="1.1" id="Layer_1" xmlns="http://www.w3.org/2000/svg" xmlns:xlink="http://www.w3.org/1999/xlink" x="0px" y="0px"
	 width="100%" viewBox="0 0 1018 509" enable-background="new 0 0 1018 509" xml:space="preserve">
<path fill="#FFFFFF" opacity="1.000000" stroke="none" 
	d="
M678.000000,510.000000 
	C452.036896,510.000000 226.573792,510.000000 1.055343,510.000000 
	C1.055343,340.398010 1.055343,170.795990 1.055343,1.096983 
	C340.213135,1.096983 679.426270,1.096983 1018.819702,1.096983 
	C1018.819702,170.666519 1018.819702,340.333252 1018.819702,510.000000 
	C905.462585,510.000000 791.981323,510.000000 678.000000,510.000000 
M99.959404,330.428986 
	C110.623825,305.450470 110.047874,278.832733 111.036850,252.071457 
	C112.933365,252.071457 114.564278,252.071442 116.195183,252.071457 
	C133.528061,252.071640 150.861511,252.141220 168.193161,251.996155 
	C170.751724,251.974762 173.634140,251.513672 175.796341,250.266846 
	C183.788544,245.658279 189.874115,239.146072 193.203629,230.399918 
	C195.927094,223.245728 193.518539,219.560104 185.924423,219.976074 
	C177.458130,220.439789 169.044571,221.796738 160.583221,222.435883 
	C144.192673,223.673981 127.784729,224.681580 110.957428,225.813385 
	C110.957428,207.832031 110.957428,190.583313 110.957428,172.892365 
	C113.032974,172.892365 115.172798,173.013031 117.295502,172.873505 
	C136.222580,171.629349 155.179199,170.686340 174.057816,168.915802 
	C183.449081,168.035034 189.998032,161.986862 194.561600,153.854675 
	C196.486206,150.425049 195.648117,147.813354 192.278275,145.962051 
	C186.110229,142.573486 179.613220,141.411087 172.547134,142.286102 
	C137.659760,146.606277 102.769997,151.014389 67.466606,148.144882 
	C65.377106,147.975052 61.716019,148.611389 61.347309,149.722473 
	C60.617928,151.920425 60.986160,155.095764 62.136200,157.187790 
	C65.415520,163.153183 71.075211,166.632660 77.379005,168.526337 
	C80.930374,169.593216 81.466583,171.305313 81.456665,174.534714 
	C81.340988,212.200043 81.778984,249.872879 81.142761,287.528046 
	C80.876678,303.276245 78.767136,319.034332 76.729134,334.688110 
	C76.065369,339.786469 77.200317,343.439667 80.325241,346.904938 
	C84.088188,351.077728 86.752960,351.315063 90.089371,346.809296 
	C93.718880,341.907623 96.516693,336.390137 99.959404,330.428986 
M464.162292,230.963058 
	C462.582977,226.349182 462.149200,220.902145 457.064331,218.495911 
	C448.682709,214.529602 440.252625,210.602615 431.598877,207.298187 
	C426.439331,205.328018 424.395691,207.270233 423.923523,212.978546 
	C423.212646,221.572571 427.928131,227.286621 433.871399,232.575287 
	C435.461273,233.990036 436.934845,236.506775 436.973053,238.545517 
	C437.412903,262.015350 437.752960,285.490723 437.730103,308.964264 
	C437.714386,325.108368 436.898712,341.251678 436.886261,357.395721 
	C436.883545,360.919739 437.909241,366.713409 439.975342,367.503723 
	C444.448181,369.214722 448.105957,365.081299 451.092773,361.647400 
	C452.501862,360.027374 453.777985,358.247742 454.854675,356.389923 
	C460.042999,347.437622 462.666748,337.660980 462.972626,327.410706 
	C463.633209,305.273468 463.877563,283.123871 464.517365,260.985870 
	C464.580566,258.798828 465.616150,256.006378 467.188110,254.595169 
	C481.606293,241.651886 505.864716,247.328339 512.957214,265.189850 
	C517.267761,276.045288 517.687256,287.497681 518.182983,299.001434 
	C518.769409,312.611023 519.262085,326.299072 521.168884,339.758575 
	C523.579529,356.775177 532.034058,365.130127 546.712219,367.426880 
	C553.296631,368.457153 555.422363,365.780304 552.999329,359.464050 
	C551.040466,354.357666 548.591370,349.391541 547.140808,344.147186 
	C543.389893,330.586151 544.632324,316.723602 545.531860,302.939423 
	C546.707581,284.922791 547.112061,266.976074 540.896057,249.642090 
	C529.612854,218.178070 488.647949,208.018814 464.162292,230.963058 
M372.642273,322.994995 
	C373.427856,328.927399 373.885132,334.925781 375.061768,340.779572 
	C378.324707,357.013062 385.879608,364.967712 400.118958,367.223511 
	C402.318451,367.571930 405.733002,367.274628 406.787201,365.898376 
	C407.892303,364.455658 407.318848,361.197937 406.618652,359.008606 
	C405.007690,353.971497 402.466858,349.216736 401.031128,344.141479 
	C397.005798,329.911896 398.582703,315.388123 399.524078,300.950806 
	C400.568756,284.928894 400.646454,268.999847 396.008942,253.430466 
	C385.648865,218.648987 347.375336,207.259399 319.748383,230.673401 
	C319.462860,230.915375 318.852844,230.774551 319.855164,230.691711 
	C317.352844,226.451569 316.096832,221.321640 312.958374,219.575851 
	C304.039795,214.614807 294.413330,210.887924 284.936005,206.990234 
	C281.552673,205.598801 279.657623,207.728760 279.040863,211.077942 
	C277.755981,218.055145 279.489563,224.802505 284.989349,228.617935 
	C292.245911,233.652084 292.449219,240.353012 292.570465,247.631577 
	C292.617615,250.462296 292.835663,253.293503 292.794159,256.121826 
	C292.347168,286.592133 291.817383,317.061340 291.434540,347.532379 
	C291.367798,352.844086 291.610474,358.193146 292.202759,363.469666 
	C292.730804,368.174255 295.050568,369.566101 298.978912,366.952789 
	C302.861206,364.370117 306.548737,360.927155 309.126282,357.063995 
	C315.269867,347.856110 317.617004,337.227997 317.927032,326.299530 
	C318.545654,304.494202 318.756775,282.677460 319.297028,260.869415 
	C319.345032,258.931213 320.030121,256.477478 321.333282,255.184113 
	C333.834534,242.776978 357.679382,246.367950 365.203400,262.191589 
	C368.205078,268.504395 370.103394,275.713440 370.777100,282.681458 
	C372.040344,295.746460 372.045776,308.933136 372.642273,322.994995 
M678.544250,226.968475 
	C674.496277,223.295547 670.932129,218.796524 666.316345,216.093323 
	C646.807922,204.668747 626.703247,206.687088 607.758057,216.793839 
	C582.096985,230.483246 572.241699,253.964661 571.954712,281.927979 
	C571.764832,300.430725 577.701965,317.016968 590.803772,330.400604 
	C609.562439,349.562866 641.825500,353.178070 666.077393,339.250702 
	C673.484436,334.996979 679.578064,329.399078 682.859741,321.426361 
	C683.808472,319.121521 683.070862,316.122559 683.106323,313.441833 
	C680.612000,313.558777 677.984863,313.208252 675.645996,313.872528 
	C664.814209,316.949219 654.264282,321.579407 643.244446,323.327423 
	C609.782410,328.635345 599.815613,303.106415 603.319824,281.005615 
	C626.563110,278.957123 649.606201,277.083221 672.608704,274.799683 
	C679.180664,274.147217 685.778809,272.784332 692.102051,270.876099 
	C698.345520,268.991882 699.596375,265.637787 695.716492,260.507172 
	C691.706238,255.204178 689.855957,249.207748 687.421021,243.279922 
	C685.170776,237.801819 681.831421,232.771072 678.544250,226.968475 
M902.229370,287.076233 
	C902.229370,268.162903 902.229370,249.249588 902.229370,230.179688 
	C910.218384,229.536331 917.663025,228.808884 925.124695,228.368790 
	C934.188416,227.834198 940.624817,223.032913 943.609253,214.471725 
	C944.763977,211.159317 944.035095,208.566422 940.641113,207.878036 
	C936.183838,206.973999 931.505493,206.095795 927.043396,206.510376 
	C918.832458,207.273300 910.709961,208.987610 901.621826,210.455414 
	C902.201904,201.951828 902.308655,194.126007 903.434570,186.449677 
	C904.022644,182.440781 903.547241,179.228226 901.153809,176.238358 
	C894.218384,167.574661 885.311768,161.610916 874.897949,158.039307 
	C870.031067,156.370117 867.284851,157.861740 866.572266,162.894379 
	C866.098877,166.237106 866.342773,170.472977 868.045349,173.196411 
	C875.755676,185.529587 872.498108,198.977509 873.449219,212.575546 
	C863.893982,213.434052 854.825745,214.432785 845.730164,214.971802 
	C842.284058,215.176010 839.617798,215.539612 838.368164,219.302963 
	C837.143799,222.990112 838.626343,226.039017 841.408875,227.470215 
	C846.451538,230.063858 851.825256,232.458038 857.336182,233.566422 
	C862.372437,234.579361 867.773010,233.781235 873.356689,233.781235 
	C873.356689,236.547211 873.309265,239.023209 873.364136,241.496933 
	C873.888062,265.119843 873.589355,288.799377 875.189209,312.349731 
	C876.980896,338.723938 895.961792,353.659943 922.094421,350.967926 
	C929.915955,350.162201 936.472534,346.847565 940.685974,339.928162 
	C943.323547,335.596832 942.267944,333.843201 937.296814,333.852875 
	C935.299866,333.856781 933.283020,333.840973 931.309448,334.097412 
	C914.465942,336.286255 907.866089,326.595184 905.257202,314.236053 
	C903.448059,305.665802 903.206299,296.764740 902.229370,287.076233 
M739.625183,214.094040 
	C736.685974,216.791214 733.363159,219.175476 730.867371,222.234421 
	C708.157349,250.068512 704.426697,281.173340 718.489014,313.430664 
	C739.418091,361.439240 796.933594,358.592499 822.232300,334.997253 
	C827.061279,330.493378 830.279297,324.179077 833.824097,318.442627 
	C834.660583,317.088867 833.810364,314.692719 833.736023,312.776093 
	C831.864197,312.941254 829.760803,312.615479 828.166016,313.367859 
	C824.122864,315.275330 820.452332,317.994720 816.369629,319.791443 
	C809.115295,322.984009 801.898010,326.769592 794.256287,328.478577 
	C770.162903,333.866821 755.166992,326.198242 746.729126,304.489197 
	C740.123840,287.495239 739.670288,269.892029 745.202698,252.598862 
	C752.866882,228.642273 772.572693,219.661438 796.140686,228.892715 
	C801.672852,231.059570 806.715820,234.448868 812.163757,236.871033 
	C814.100830,237.732224 817.475098,238.373047 818.576416,237.358810 
	C820.036499,236.014206 820.635559,232.848816 820.332642,230.640427 
	C819.389954,223.768478 815.855042,218.129272 810.251221,214.028152 
	C789.622314,198.931229 761.078674,198.841843 739.625183,214.094040 
M244.629318,351.119873 
	C252.709106,336.463928 255.471542,320.486664 255.603424,304.055054 
	C255.847900,273.596039 255.683350,243.133667 255.646286,212.672745 
	C255.643875,210.694870 255.449524,208.681503 255.046951,206.746552 
	C253.850250,200.994598 250.654999,197.877167 244.852325,197.600708 
	C233.055374,197.038681 221.671478,199.188339 210.958282,204.207993 
	C206.057724,206.504150 205.212280,209.457047 208.501144,213.701096 
	C210.434418,216.195862 213.333206,218.163879 216.168732,219.670593 
	C218.598099,220.961502 221.517715,221.489075 224.287933,221.941986 
	C228.445663,222.621765 229.893356,224.601776 229.860825,228.980606 
	C229.660538,255.944458 229.354919,282.920135 229.963043,309.872040 
	C230.265091,323.259369 232.274078,336.624695 233.924973,349.948669 
	C234.197784,352.150482 236.606079,354.087708 238.027481,356.147186 
	C240.081390,354.669434 242.135284,353.191681 244.629318,351.119873 
M252.303055,168.733994 
	C254.349121,161.342377 253.341049,157.692749 246.771866,154.122070 
	C242.488434,151.793793 237.610992,150.224457 232.809830,149.271027 
	C227.389465,148.194595 223.707321,151.735321 221.018341,155.998825 
	C218.165497,160.522186 216.164673,165.756683 219.454437,170.511703 
	C223.880157,176.908585 230.494095,180.906845 238.407272,180.898834 
	C245.638611,180.891510 249.331818,175.461288 252.303055,168.733994 
z"/>
<path fill="#030303" opacity="1.000000" stroke="none" 
	d="
M99.818260,330.785065 
	C96.516693,336.390137 93.718880,341.907623 90.089371,346.809296 
	C86.752960,351.315063 84.088188,351.077728 80.325241,346.904938 
	C77.200317,343.439667 76.065369,339.786469 76.729134,334.688110 
	C78.767136,319.034332 80.876678,303.276245 81.142761,287.528046 
	C81.778984,249.872879 81.340988,212.200043 81.456665,174.534714 
	C81.466583,171.305313 80.930374,169.593216 77.379005,168.526337 
	C71.075211,166.632660 65.415520,163.153183 62.136200,157.187790 
	C60.986160,155.095764 60.617928,151.920425 61.347309,149.722473 
	C61.716019,148.611389 65.377106,147.975052 67.466606,148.144882 
	C102.769997,151.014389 137.659760,146.606277 172.547134,142.286102 
	C179.613220,141.411087 186.110229,142.573486 192.278275,145.962051 
	C195.648117,147.813354 196.486206,150.425049 194.561600,153.854675 
	C189.998032,161.986862 183.449081,168.035034 174.057816,168.915802 
	C155.179199,170.686340 136.222580,171.629349 117.295502,172.873505 
	C115.172798,173.013031 113.032974,172.892365 110.957428,172.892365 
	C110.957428,190.583313 110.957428,207.832031 110.957428,225.813385 
	C127.784729,224.681580 144.192673,223.673981 160.583221,222.435883 
	C169.044571,221.796738 177.458130,220.439789 185.924423,219.976074 
	C193.518539,219.560104 195.927094,223.245728 193.203629,230.399918 
	C189.874115,239.146072 183.788544,245.658279 175.796341,250.266846 
	C173.634140,251.513672 170.751724,251.974762 168.193161,251.996155 
	C150.861511,252.141220 133.528061,252.071640 116.195183,252.071457 
	C114.564278,252.071442 112.933365,252.071457 111.036850,252.071457 
	C110.047874,278.832733 110.623825,305.450470 99.818260,330.785065 
z"/>
<path fill="#020202" opacity="1.000000" stroke="none" 
	d="
M464.524475,230.843353 
	C488.647949,208.018814 529.612854,218.178070 540.896057,249.642090 
	C547.112061,266.976074 546.707581,284.922791 545.531860,302.939423 
	C544.632324,316.723602 543.389893,330.586151 547.140808,344.147186 
	C548.591370,349.391541 551.040466,354.357666 552.999329,359.464050 
	C555.422363,365.780304 553.296631,368.457153 546.712219,367.426880 
	C532.034058,365.130127 523.579529,356.775177 521.168884,339.758575 
	C519.262085,326.299072 518.769409,312.611023 518.182983,299.001434 
	C517.687256,287.497681 517.267761,276.045288 512.957214,265.189850 
	C505.864716,247.328339 481.606293,241.651886 467.188110,254.595169 
	C465.616150,256.006378 464.580566,258.798828 464.517365,260.985870 
	C463.877563,283.123871 463.633209,305.273468 462.972626,327.410706 
	C462.666748,337.660980 460.042999,347.437622 454.854675,356.389923 
	C453.777985,358.247742 452.501862,360.027374 451.092773,361.647400 
	C448.105957,365.081299 444.448181,369.214722 439.975342,367.503723 
	C437.909241,366.713409 436.883545,360.919739 436.886261,357.395721 
	C436.898712,341.251678 437.714386,325.108368 437.730103,308.964264 
	C437.752960,285.490723 437.412903,262.015350 436.973053,238.545517 
	C436.934845,236.506775 435.461273,233.990036 433.871399,232.575287 
	C427.928131,227.286621 423.212646,221.572571 423.923523,212.978546 
	C424.395691,207.270233 426.439331,205.328018 431.598877,207.298187 
	C440.252625,210.602615 448.682709,214.529602 457.064331,218.495911 
	C462.149200,220.902145 462.582977,226.349182 464.524475,230.843353 
z"/>
<path fill="#020202" opacity="1.000000" stroke="none" 
	d="
M372.608337,322.532104 
	C372.045776,308.933136 372.040344,295.746460 370.777100,282.681458 
	C370.103394,275.713440 368.205078,268.504395 365.203400,262.191589 
	C357.679382,246.367950 333.834534,242.776978 321.333282,255.184113 
	C320.030121,256.477478 319.345032,258.931213 319.297028,260.869415 
	C318.756775,282.677460 318.545654,304.494202 317.927032,326.299530 
	C317.617004,337.227997 315.269867,347.856110 309.126282,357.063995 
	C306.548737,360.927155 302.861206,364.370117 298.978912,366.952789 
	C295.050568,369.566101 292.730804,368.174255 292.202759,363.469666 
	C291.610474,358.193146 291.367798,352.844086 291.434540,347.532379 
	C291.817383,317.061340 292.347168,286.592133 292.794159,256.121826 
	C292.835663,253.293503 292.617615,250.462296 292.570465,247.631577 
	C292.449219,240.353012 292.245911,233.652084 284.989349,228.617935 
	C279.489563,224.802505 277.755981,218.055145 279.040863,211.077942 
	C279.657623,207.728760 281.552673,205.598801 284.936005,206.990234 
	C294.413330,210.887924 304.039795,214.614807 312.958374,219.575851 
	C316.096832,221.321640 317.352844,226.451569 319.855164,230.691711 
	C318.852844,230.774551 319.462860,230.915375 319.748383,230.673401 
	C347.375336,207.259399 385.648865,218.648987 396.008942,253.430466 
	C400.646454,268.999847 400.568756,284.928894 399.524078,300.950806 
	C398.582703,315.388123 397.005798,329.911896 401.031128,344.141479 
	C402.466858,349.216736 405.007690,353.971497 406.618652,359.008606 
	C407.318848,361.197937 407.892303,364.455658 406.787201,365.898376 
	C405.733002,367.274628 402.318451,367.571930 400.118958,367.223511 
	C385.879608,364.967712 378.324707,357.013062 375.061768,340.779572 
	C373.885132,334.925781 373.427856,328.927399 372.608337,322.532104 
z"/>
<path fill="#030303" opacity="1.000000" stroke="none" 
	d="
M678.757996,227.255890 
	C681.831421,232.771072 685.170776,237.801819 687.421021,243.279922 
	C689.855957,249.207748 691.706238,255.204178 695.716492,260.507172 
	C699.596375,265.637787 698.345520,268.991882 692.102051,270.876099 
	C685.778809,272.784332 679.180664,274.147217 672.608704,274.799683 
	C649.606201,277.083221 626.563110,278.957123 603.319824,281.005615 
	C599.815613,303.106415 609.782410,328.635345 643.244446,323.327423 
	C654.264282,321.579407 664.814209,316.949219 675.645996,313.872528 
	C677.984863,313.208252 680.612000,313.558777 683.106323,313.441833 
	C683.070862,316.122559 683.808472,319.121521 682.859741,321.426361 
	C679.578064,329.399078 673.484436,334.996979 666.077393,339.250702 
	C641.825500,353.178070 609.562439,349.562866 590.803772,330.400604 
	C577.701965,317.016968 571.764832,300.430725 571.954712,281.927979 
	C572.241699,253.964661 582.096985,230.483246 607.758057,216.793839 
	C626.703247,206.687088 646.807922,204.668747 666.316345,216.093323 
	C670.932129,218.796524 674.496277,223.295547 678.757996,227.255890 
M607.931030,250.515900 
	C606.748779,254.014038 605.566589,257.512177 604.148315,261.708649 
	C624.560181,258.668335 643.822021,255.799316 663.468872,252.872971 
	C662.505615,250.237411 661.871765,248.003891 660.901428,245.927582 
	C653.673889,230.461319 637.599976,224.240433 623.828308,231.637833 
	C616.331360,235.664795 611.774414,242.347290 607.931030,250.515900 
z"/>
<path fill="#030303" opacity="1.000000" stroke="none" 
	d="
M902.246826,287.543854 
	C903.206299,296.764740 903.448059,305.665802 905.257202,314.236053 
	C907.866089,326.595184 914.465942,336.286255 931.309448,334.097412 
	C933.283020,333.840973 935.299866,333.856781 937.296814,333.852875 
	C942.267944,333.843201 943.323547,335.596832 940.685974,339.928162 
	C936.472534,346.847565 929.915955,350.162201 922.094421,350.967926 
	C895.961792,353.659943 876.980896,338.723938 875.189209,312.349731 
	C873.589355,288.799377 873.888062,265.119843 873.364136,241.496933 
	C873.309265,239.023209 873.356689,236.547211 873.356689,233.781235 
	C867.773010,233.781235 862.372437,234.579361 857.336182,233.566422 
	C851.825256,232.458038 846.451538,230.063858 841.408875,227.470215 
	C838.626343,226.039017 837.143799,222.990112 838.368164,219.302963 
	C839.617798,215.539612 842.284058,215.176010 845.730164,214.971802 
	C854.825745,214.432785 863.893982,213.434052 873.449219,212.575546 
	C872.498108,198.977509 875.755676,185.529587 868.045349,173.196411 
	C866.342773,170.472977 866.098877,166.237106 866.572266,162.894379 
	C867.284851,157.861740 870.031067,156.370117 874.897949,158.039307 
	C885.311768,161.610916 894.218384,167.574661 901.153809,176.238358 
	C903.547241,179.228226 904.022644,182.440781 903.434570,186.449677 
	C902.308655,194.126007 902.201904,201.951828 901.621826,210.455414 
	C910.709961,208.987610 918.832458,207.273300 927.043396,206.510376 
	C931.505493,206.095795 936.183838,206.973999 940.641113,207.878036 
	C944.035095,208.566422 944.763977,211.159317 943.609253,214.471725 
	C940.624817,223.032913 934.188416,227.834198 925.124695,228.368790 
	C917.663025,228.808884 910.218384,229.536331 902.229370,230.179688 
	C902.229370,249.249588 902.229370,268.162903 902.246826,287.543854 
z"/>
<path fill="#030303" opacity="1.000000" stroke="none" 
	d="
M739.922607,213.895905 
	C761.078674,198.841843 789.622314,198.931229 810.251221,214.028152 
	C815.855042,218.129272 819.389954,223.768478 820.332642,230.640427 
	C820.635559,232.848816 820.036499,236.014206 818.576416,237.358810 
	C817.475098,238.373047 814.100830,237.732224 812.163757,236.871033 
	C806.715820,234.448868 801.672852,231.059570 796.140686,228.892715 
	C772.572693,219.661438 752.866882,228.642273 745.202698,252.598862 
	C739.670288,269.892029 740.123840,287.495239 746.729126,304.489197 
	C755.166992,326.198242 770.162903,333.866821 794.256287,328.478577 
	C801.898010,326.769592 809.115295,322.984009 816.369629,319.791443 
	C820.452332,317.994720 824.122864,315.275330 828.166016,313.367859 
	C829.760803,312.615479 831.864197,312.941254 833.736023,312.776093 
	C833.810364,314.692719 834.660583,317.088867 833.824097,318.442627 
	C830.279297,324.179077 827.061279,330.493378 822.232300,334.997253 
	C796.933594,358.592499 739.418091,361.439240 718.489014,313.430664 
	C704.426697,281.173340 708.157349,250.068512 730.867371,222.234421 
	C733.363159,219.175476 736.685974,216.791214 739.922607,213.895905 
z"/>
<path fill="#040404" opacity="1.000000" stroke="none" 
	d="
M244.409256,351.416901 
	C242.135284,353.191681 240.081390,354.669434 238.027481,356.147186 
	C236.606079,354.087708 234.197784,352.150482 233.924973,349.948669 
	C232.274078,336.624695 230.265091,323.259369 229.963043,309.872040 
	C229.354919,282.920135 229.660538,255.944458 229.860825,228.980606 
	C229.893356,224.601776 228.445663,222.621765 224.287933,221.941986 
	C221.517715,221.489075 218.598099,220.961502 216.168732,219.670593 
	C213.333206,218.163879 210.434418,216.195862 208.501144,213.701096 
	C205.212280,209.457047 206.057724,206.504150 210.958282,204.207993 
	C221.671478,199.188339 233.055374,197.038681 244.852325,197.600708 
	C250.654999,197.877167 253.850250,200.994598 255.046951,206.746552 
	C255.449524,208.681503 255.643875,210.694870 255.646286,212.672745 
	C255.683350,243.133667 255.847900,273.596039 255.603424,304.055054 
	C255.471542,320.486664 252.709106,336.463928 244.409256,351.416901 
z"/>
<path fill="#040404" opacity="1.000000" stroke="none" 
	d="
M252.186798,169.095764 
	C249.331818,175.461288 245.638611,180.891510 238.407272,180.898834 
	C230.494095,180.906845 223.880157,176.908585 219.454437,170.511703 
	C216.164673,165.756683 218.165497,160.522186 221.018341,155.998825 
	C223.707321,151.735321 227.389465,148.194595 232.809830,149.271027 
	C237.610992,150.224457 242.488434,151.793793 246.771866,154.122070 
	C253.341049,157.692749 254.349121,161.342377 252.186798,169.095764 
z"/>
<path fill="#FBFBFB" opacity="1.000000" stroke="none" 
	d="
M608.046570,250.151978 
	C611.774414,242.347290 616.331360,235.664795 623.828308,231.637833 
	C637.599976,224.240433 653.673889,230.461319 660.901428,245.927582 
	C661.871765,248.003891 662.505615,250.237411 663.468872,252.872971 
	C643.822021,255.799316 624.560181,258.668335 604.148315,261.708649 
	C605.566589,257.512177 606.748779,254.014038 608.046570,250.151978 
z"/>
</svg>